<svg width="29" height="29" fill="none" xmlns="http://www.w3.org/2000/svg"><path d="M22.61 0H6.92A6.39 6.39 0 0 0 .53 6.39v15.69a6.39 6.39 0 0 0 6.39 6.39h15.69A6.39 6.39 0 0 0 29 22.08V6.39A6.39 6.39 0 0 0 22.61 0Z" fill="#F9F9F9"/><path d="M11.44 12.315H9.162v6.672h2.278v-6.672Zm-.383-3.113a1.439 1.439 0 0 0-1.24-.11c-.162.06-.308.15-.43.262-.123.112-.22.245-.287.391a1.103 1.103 0 0 0 .128 1.126c.147.196.353.348.595.438.242.09.507.113.763.066s.49-.162.674-.33a1.17 1.17 0 0 0 .36-.614c.05-.233.024-.474-.077-.692-.1-.219-.27-.406-.486-.537Zm4.04 3.113h-2.195L12.894 19h2.278v-3.301c0-.869.183-1.71 1.367-1.71 1.185 0 1.185 1 1.185 1.772v3.225h2.278v-3.66c0-1.798-.463-3.177-2.741-3.177a2.6 2.6 0 0 0-1.246.266c-.381.19-.699.47-.918.81v-.91Z" fill="#646464"/></svg>