<svg width="29" height="29" fill="none" xmlns="http://www.w3.org/2000/svg"><path d="M28.469 24.516c0 1.05-.41 2.055-1.14 2.796a3.856 3.856 0 0 1-2.75 1.159H4.359a3.856 3.856 0 0 1-2.75-1.159 3.988 3.988 0 0 1-1.14-2.796V3.954c0-1.048.41-2.054 1.14-2.796A3.857 3.857 0 0 1 4.358 0H24.58a3.86 3.86 0 0 1 2.75 1.158 3.988 3.988 0 0 1 1.139 2.796v20.562Z" fill="#F9F9F9"/><path d="M19.877 11.004c-.398.185-.901.36-1.352.417.459-.286 1.187-.882 1.352-1.421-.429.265-1.204.548-1.71.65-.404-.45-.98-.65-1.618-.65-1.226 0-2.081 1.092-2.081 2.368v.948c-1.803 0-3.561-1.444-4.655-2.842a2.369 2.369 0 0 0-.3 1.163c0 .862.752 1.737 1.349 2.152-.364-.011-1.053-.303-1.353-.473v.027c0 1.121.75 1.882 1.764 2.094-.185.054-.411.247-1.28.247.282.917 1.7 1.401 2.672 1.421-.76.62-2.115.948-3.156.948-.18 0-.277.01-.45-.011.982.653 2.353.958 3.606.958 4.082 0 6.31-3.277 6.31-6.333 0-.1-.003-.437-.008-.535.437-.323.613-.662.91-1.128Z" fill="#646464"/></svg>